<?xml version="1.0" encoding="UTF-8" standalone="no"?><!DOCTYPE svg PUBLIC "-//W3C//DTD SVG 1.1//EN" "http://www.w3.org/Graphics/SVG/1.1/DTD/svg11.dtd"><svg width="100%" height="100%" viewBox="0 0 24 24" version="1.1" xmlns="http://www.w3.org/2000/svg" xmlns:xlink="http://www.w3.org/1999/xlink" xml:space="preserve" xmlns:serif="http://www.serif.com/" style="fill-rule:evenodd;clip-rule:evenodd;stroke-linecap:round;stroke-linejoin:round;stroke-miterlimit:1.5;"><path d="M5.5,22.5c0,0 1.134,-3 6.5,-3c5.366,0 6.5,3 6.5,3" style="fill:none;stroke:#000;stroke-width:2px;"/><path d="M8,14c0,0 1.03,3 4,3c2.97,0 4,-3 4,-3" style="fill:none;stroke:#000;stroke-width:2px;"/><path d="M12,11.5l5,0c0,0 1,-0.431 1,-2.5c0,-3.178 -6,-7 -6,-7c0,0 -6,3.822 -6,7c0,2.069 1,2.5 1,2.5l5,0" style="fill:none;stroke:#000;stroke-width:2px;"/><path d="M12,6l0,3.5" style="fill:none;stroke:#000;stroke-width:1px;"/><path d="M13,7l-2,0" style="fill:none;stroke:#000;stroke-width:1px;"/></svg>